<html>
<head>
<meta charset="UTF-8">
<meta name="viewport" content="width=device-width, initial-scale=1.0"/>

<style>
.comment
{
    padding-left: 20px;
    margin-top: 4px;
    margin-right: 4px;
    margin-bottom: 4px;
    border: 2px #000 solid;
}
.submission
{
    border: 4px #00f solid;
    padding-left: 20px;
}
.hidden
{
    display: none;
}
</style>
</head>
<body><div class="submission" id="t3_5yqgl8">
    <p class="userinfo">
        <a href="https://www.reddit.com/u/jodorowsthesky">jodorowsthesky</a>
        <span class="score"> | 25 points</span>
        <span class="timestamp"> | Mar 11 2017 02:38:06</span>
    </p>
    <strong>[MOVIE] A Bronx Tale (1993) [720p][x264][3.38GB]</strong>
    <p><p>.nz/#!610kibqS!Oek49dFAG0ygKIMVuLw5hBNu2njIV3noK5kSvmSr3_s  </p>
<pre><code>Format                                   : Matroska
Format version                           : Version 4 / Version 2
File size                                : 3.38 GiB
Duration                                 : 2 h 1 min
Overall bit rate                         : 3 990 kb/s
Movie name                               : In den Straßen der Bronx (1993)
Encoded date                             : UTC 2016-07-28 13:05:42 / UTC 2016-07-28T12:32:36Z
Writing application                      : mkvmerge v9.2.0 ('Photograph') 32bit
Writing library                          : libebml v1.3.3 + libmatroska v1.4.4 / Lavf55.12.0

Video
ID                                       : 1
Format                                   : AVC
Format/Info                              : Advanced Video Codec
Format profile                           : High@L4.1
Format settings, CABAC                   : Yes
Format settings, ReFrames                : 4 frames
Codec ID                                 : V_MPEG4/ISO/AVC
Duration                                 : 2 h 1 min
Bit rate                                 : 3 766 kb/s
Width                                    : 1 280 pixels
Height                                   : 720 pixels
Display aspect ratio                     : 16:9
Frame rate mode                          : Constant
Frame rate                               : 23.976 (24000/1001) FPS
Color space                              : YUV
Chroma subsampling                       : 4:2:0
Bit depth                                : 8 bits
Scan type                                : Progressive
Bits/(Pixel*Frame)                       : 0.170
Stream size                              : 3.15 GiB (93%)
Writing library                          : x264 core 142 r2479 dd79a61
Encoding settings                        : cabac=1 / ref=1 / deblock=1:0:0 / analyse=0x3:0x113 / me=hex / subme=2 / psy=1 / psy_rd=1.00:0.00 / mixed_ref=0 / me_range=16 / chroma_me=1 / trellis=0 / 8x8dct=1 / cqm=0 / deadzone=21,11 / fast_pskip=1 / chroma_qp_offset=0 / threads=48 / lookahead_threads=5 / sliced_threads=0 / nr=0 / decimate=1 / interlaced=0 / bluray_compat=0 / constrained_intra=0 / bframes=3 / b_pyramid=2 / b_adapt=1 / b_bias=0 / direct=1 / weightb=1 / open_gop=0 / weightp=1 / keyint=240 / keyint_min=24 / scenecut=40 / intra_refresh=0 / rc_lookahead=10 / rc=abr / mbtree=1 / bitrate=3766 / ratetol=1.0 / qcomp=0.60 / qpmin=0 / qpmax=69 / qpstep=4 / vbv_maxrate=62500 / vbv_bufsize=78125 / nal_hrd=none / filler=0 / ip_ratio=1.40 / aq=1:1.00
Default                                  : Yes
Forced                                   : No
Color range                              : Limited
Color primaries                          : BT.709
Transfer characteristics                 : BT.709
Matrix coefficients                      : BT.709
Statistics Tags Issue                    : mkvmerge v9.2.0 ('Photograph') 32bit 2016-07-28 13:05:42 / mkvmerge v9.2.0 ('Photograph') 32bit 2016-07-28 13:05:42 / UTC 2016-07-28T12:32:36Z
FromStats_BitRate                        : 3796491
FromStats_Duration                       : 02:01:26.238000000
FromStats_FrameCount                     : 174695
FromStats_StreamSize                     : 3457767206

Audio
ID                                       : 2
Format                                   : AC-3
Format/Info                              : Audio Coding 3
Mode extension                           : CM (complete main)
Format settings, Endianness              : Big
Codec ID                                 : A_AC3
Duration                                 : 2 h 1 min
Bit rate mode                            : Constant
Bit rate                                 : 192 kb/s
Channel(s)                               : 2 channels
Channel positions                        : Front: L R
Sampling rate                            : 48.0 kHz
Frame rate                               : 31.250 FPS (1536 spf)
Compression mode                         : Lossy
Delay relative to video                  : -5 ms
Stream size                              : 167 MiB (5%)
Title                                    : Stereo
Language                                 : English
Default                                  : Yes
Forced                                   : No
Statistics Tags Issue                    : mkvmerge v9.2.0 ('Photograph') 32bit 2016-07-28 13:05:42 / mkvmerge v9.2.0 ('Photograph') 32bit 2016-07-28 13:05:42 / UTC 2016-07-28T12:32:36Z
FromStats_BitRate                        : 192000
FromStats_Duration                       : 02:01:26.336000000
FromStats_FrameCount                     : 227698
FromStats_StreamSize                     : 174872064
</code></pre></p>
    <p class="toolbar">
        <a href="https://www.reddit.com/r/megalinks/comments/5yqgl8">permalink</a>
    </p>
</div>
<div class="comment" id="t1_des4szl">
    <p class="userinfo">
        <a
        class="toggle_hide_button"
        href="javascript:void(0)"
        onclick="toggle_collapse(this.parentElement.parentElement)">[-]
        </a>
        <a href="https://www.reddit.com/u/boltrop">boltrop</a>
        <span class="score"> | 2 points</span>
        <span class="timestamp"> | Mar 11 2017 02:41:06</span>
    </p>
    <div class="collapsible">
        <h3><a href="https://images-na.ssl-images-amazon.com/images/M/MV5BMTg2MTg5MTY0M15BMl5BanBnXkFtZTgwMjA5MDgxMTE@._V1_.jpg">A Bronx Tale</a> (1993)</h3>
<p><strong>Genre</strong>: Crime, Drama</p>
<p><strong>Rating</strong>:  7.8 (101891 votes)</p>
<p><strong>Certification</strong>: R</p>
<p><strong>Runtime</strong>: 121 min</p>
<hr>
<blockquote>
<p><strong>Director(s)</strong>: <a href="https://www.imdb.com/name/nm0000134/">Robert De Niro</a></p>
<p><strong>Writer(s)</strong>: <a href="https://www.imdb.com/name/nm0001590/">Chazz Palminteri</a>, <a href="https://www.imdb.com/name/nm0001590/">Chazz Palminteri</a></p>
<p><strong>Cast</strong>: <a href="https://www.imdb.com/name/nm0000134/">Robert De Niro</a>, <a href="https://www.imdb.com/name/nm0001590/">Chazz Palminteri</a>, <a href="https://www.imdb.com/name/nm0000969/">Lillo Brancato</a>, <a href="https://www.imdb.com/name/nm0135584/">Francis Capra</a></p>
<p><strong>Plot</strong>: A father becomes worried when a local gangster befriends his son in the Bronx in the 1960s.</p>
</blockquote>
<hr>
<p>^This ^summary ^is ^taken ^from <a href="https://www.imdb.com/title/tt0106489/">^imdb.com</a> ^| ^For ^feedback ^or ^suggestions ^contact <a href="http://www.reddit.com/message/compose/?to=indigo6alpha">^/u/indigo6alpha</a></p>
        <p class="toolbar">
            <a href="https://www.reddit.com/r/megalinks/comments/5yqgl8/_/des4szl">permalink</a>
        </p>
        
    </div>
</div>

<div class="comment" id="t1_des6yp1">
    <p class="userinfo">
        <a
        class="toggle_hide_button"
        href="javascript:void(0)"
        onclick="toggle_collapse(this.parentElement.parentElement)">[-]
        </a>
        <a href="https://www.reddit.com/u/Shanks01">Shanks01</a>
        <span class="score"> | 2 points</span>
        <span class="timestamp"> | Mar 11 2017 03:36:38</span>
    </p>
    <div class="collapsible">
        <p>Muchas gracias por la película.</p>
        <p class="toolbar">
            <a href="https://www.reddit.com/r/megalinks/comments/5yqgl8/_/des6yp1">permalink</a>
        </p>
        
    </div>
</div>

<div class="comment" id="t1_des4sy9">
    <p class="userinfo">
        <a
        class="toggle_hide_button"
        href="javascript:void(0)"
        onclick="toggle_collapse(this.parentElement.parentElement)">[-]
        </a>
        <a href="https://www.reddit.com/u/SubZorro">SubZorro</a>
        <span class="score"> | 1 points</span>
        <span class="timestamp"> | Mar 11 2017 02:41:04</span>
    </p>
    <div class="collapsible">
        <h5>Subtitles for this movie:</h5>
<hr>
<blockquote>
<ul>
<li>
<p><strong>A.Bronx.Tale.1993.720p.BluRay.X264-AMIABLE</strong> - <code>1 CD</code> - <a href="http://dl.opensubtitles.org/en/download/vrf-699035bd/sub/5344695">Download Subtitle</a></p>
</li>
<li>
<p><strong>A.Bronx.Tale.1993.720p.BluRay.DTS.x264-CtrlHD</strong> - <code>1 CD</code> - <a href="http://dl.opensubtitles.org/en/download/vrf-fcad3375/sub/4578284">Download Subtitle</a></p>
</li>
<li>
<p><strong>A.Bronx.Tale.(1993).PROPER.DVDRip.DivX3LM.FiNaLe</strong> - <code>2 CD</code> - <a href="http://dl.opensubtitles.org/en/download/vrf-08bb2738/sub/3424758">Download Subtitle</a></p>
</li>
<li>
<p><strong>A Bronx Tale 1993 BDRip 720p DTS x264-MarGe</strong> - <code>1 CD</code> - <a href="http://dl.opensubtitles.org/en/download/vrf-708bbd44/sub/6005626">Download Subtitle</a></p>
</li>
<li>
<p><strong>A Bronx Tale</strong> - <code>1 CD</code> - <a href="http://dl.opensubtitles.org/en/download/vrf-1f2cd571/sub/4987026">Download Subtitle</a></p>
</li>
<li>
<p><strong>A.Bronx.Tale.1993.BluRay.1080p.x264.Phenom</strong> - <code>1 CD</code> - <a href="http://dl.opensubtitles.org/en/download/vrf-6af4de91/sub/4809413">Download Subtitle</a></p>
</li>
</ul>
</blockquote>
<hr>
<p>^This ^list ^of ^subtitles ^are ^taken ^from <a href="http://www.opensubtitles.org">^opensubtitles.org</a> ^| ^For ^feedback ^or ^suggestions ^contact <a href="http://www.reddit.com/message/compose/?to=indigo6alpha">^/u/indigo6alpha</a></p>
        <p class="toolbar">
            <a href="https://www.reddit.com/r/megalinks/comments/5yqgl8/_/des4sy9">permalink</a>
        </p>
        
    </div>
</div>

<div class="comment" id="t1_deucvkq">
    <p class="userinfo">
        <a
        class="toggle_hide_button"
        href="javascript:void(0)"
        onclick="toggle_collapse(this.parentElement.parentElement)">[-]
        </a>
        <a href="https://www.reddit.com/u/fromoutoftheblue">fromoutoftheblue</a>
        <span class="score"> | 1 points</span>
        <span class="timestamp"> | Mar 12 2017 20:36:47</span>
    </p>
    <div class="collapsible">
        <p>I put this in the request thread-and now it's here ! Thank you :) A very good movie :)</p>
        <p class="toolbar">
            <a href="https://www.reddit.com/r/megalinks/comments/5yqgl8/_/deucvkq">permalink</a>
        </p>
        
    </div>
</div>
</body>

<script>
function toggle_collapse(comment_div)
{
    var button = comment_div.getElementsByClassName("toggle_hide_button")[0];
    var collapsible = comment_div.getElementsByClassName("collapsible")[0];
    if (collapsible.classList.contains("hidden"))
    {
        collapsible.classList.remove("hidden");
        button.innerText = "[-]";
    }
    else
    {
        collapsible.classList.add("hidden");
        button.innerText = "[+]";
    }
}
</script>
</html>
